<?xml version="1.0" encoding="UTF-8" standalone="no"?>
<svg width="512px" height="512px" viewBox="0 0 512 512" version="1.1" xmlns="http://www.w3.org/2000/svg" xmlns:xlink="http://www.w3.org/1999/xlink" xmlns:sketch="http://www.bohemiancoding.com/sketch/ns">
    <!-- Generator: Sketch 3.3.2 (12043) - http://www.bohemiancoding.com/sketch -->
    <title>Afternoon</title>
    <desc>Created with Sketch.</desc>
    <defs></defs>
    <g id="SVGs" stroke="none" stroke-width="1" fill="none" fill-rule="evenodd" sketch:type="MSPage">
        <g id="Afternoon" sketch:type="MSArtboardGroup" fill="#000000">
            <g id="Group-Copy-2" sketch:type="MSLayerGroup">
                <path d="M26.2889094,230.069277 L52.5604882,230.069277 C67.0245562,230.069277 78.75,241.706022 78.75,256.286145 C78.75,270.765321 66.9752101,282.503012 52.5604882,282.503012 L26.2889094,282.503012 C11.8248414,282.503012 0.0993975904,270.866267 0.0993975904,256.286145 C0.0993975904,241.806968 11.8741874,230.069277 26.2889094,230.069277 Z M74.9671389,75.5394281 C85.2054625,65.3011045 101.831297,65.3273371 112.024045,75.5200847 L130.600857,94.0968962 C140.828497,104.324537 140.891217,120.844099 130.581513,131.153802 C120.34319,141.392126 103.717355,141.365893 93.5246071,131.173146 L74.9477955,112.596334 C64.720155,102.368694 64.6574356,85.8491314 74.9671389,75.5394281 L74.9671389,75.5394281 Z M281.930723,26.8611985 L281.930723,53.1327774 C281.930723,67.5968453 270.293978,79.3222892 255.713855,79.3222892 C241.234679,79.3222892 229.496988,67.5474993 229.496988,53.1327774 L229.496988,26.8611985 C229.496988,12.3971306 241.133733,0.671686747 255.713855,0.671686747 C270.193032,0.671686747 281.930723,12.4464766 281.930723,26.8611985 Z M436.460572,75.5394281 C446.698896,85.7777517 446.672663,102.403587 436.479915,112.596334 L417.903104,131.173146 C407.675463,141.400786 391.155901,141.463506 380.846198,131.153802 C370.607874,120.915479 370.634107,104.289644 380.826854,94.0968962 L399.403666,75.5200847 C409.631306,65.2924441 426.150869,65.2297248 436.460572,75.5394281 L436.460572,75.5394281 Z M511.328313,256.286145 C511.328313,270.765321 499.553523,282.503012 485.138801,282.503012 L458.867223,282.503012 C444.403155,282.503012 432.677711,270.866267 432.677711,256.286145 C432.677711,241.806968 444.452501,230.069277 458.867223,230.069277 L485.138801,230.069277 C499.602869,230.069277 511.328313,241.706022 511.328313,256.286145 L511.328313,256.286145 Z M436.460572,437.032861 C426.222248,447.271185 409.596413,447.244952 399.403666,437.052204 L380.826854,418.475393 C370.599214,408.247752 370.536494,391.72819 380.846198,381.418487 C391.084521,371.180163 407.710356,371.206396 417.903104,381.399143 L436.479915,399.975955 C446.707556,410.203595 446.770275,426.723158 436.460572,437.032861 L436.460572,437.032861 Z M255.713855,511.900602 C241.234679,511.900602 229.496988,500.125813 229.496988,485.711091 L229.496988,459.439512 C229.496988,444.975444 241.133733,433.25 255.713855,433.25 C270.193032,433.25 281.930723,445.02479 281.930723,459.439512 L281.930723,485.711091 C281.930723,500.175159 270.293978,511.900602 255.713855,511.900602 L255.713855,511.900602 Z M74.9671389,437.032861 C64.7288153,426.794537 64.7550479,410.168703 74.9477955,399.975955 L93.5246071,381.399143 C103.752248,371.171503 120.27181,371.108783 130.581513,381.418487 C140.819837,391.65681 140.793604,408.282645 130.600857,418.475393 L112.024045,437.052204 C101.796405,447.279845 85.2768422,447.342564 74.9671389,437.032861 L74.9671389,437.032861 Z" id="Rectangle-15" sketch:type="MSShapeGroup"></path>
                <path d="M256.327706,400.884605 C336.144161,400.884605 400.848183,336.17243 400.848183,256.345917 C400.848183,176.519404 336.144161,111.807229 256.327706,111.807229 C176.51125,111.807229 111.807229,176.519404 111.807229,256.345917 C111.807229,336.17243 176.51125,400.884605 256.327706,400.884605 L256.327706,400.884605 Z M256.327706,330.099063 C215.6001,330.099063 182.583852,297.078655 182.583852,256.345917 C182.583852,215.613179 215.6001,182.592771 256.327706,182.592771 C297.055311,182.592771 330.071559,215.613179 330.071559,256.345917 C330.071559,297.078655 297.055311,330.099063 256.327706,330.099063 L256.327706,330.099063 Z" id="Shape" sketch:type="MSShapeGroup"></path>
            </g>
        </g>
    </g>
</svg>