<?xml version="1.0" encoding="utf-8"?>
<!-- Generator: Adobe Illustrator 18.1.1, SVG Export Plug-In . SVG Version: 6.00 Build 0)  -->
<!DOCTYPE svg PUBLIC "-//W3C//DTD SVG 1.1//EN" "http://www.w3.org/Graphics/SVG/1.1/DTD/svg11.dtd">
<svg version="1.1" id="Layer_1" xmlns:sketch="http://www.bohemiancoding.com/sketch/ns"
	 xmlns="http://www.w3.org/2000/svg" xmlns:xlink="http://www.w3.org/1999/xlink" x="0px" y="0px" width="512px" height="512px"
	 viewBox="91 -216 512 512" enable-background="new 91 -216 512 512" xml:space="preserve">
<title>Morning</title>
<desc>Created with Sketch.</desc>
<path id="Rectangle-111" sketch:type="MSShapeGroup" d="M360.9,74.5c9.9-3.7,17-13.3,17-24.5v-83.3c0-14.5-11.7-26.2-26.1-26.2
	c-14.4,0-26.1,11.7-26.1,26.2v57.2h-57.3c-14.5,0-26.2,11.7-26.2,26.1c0,14.4,11.7,26.2,26.2,26.2h83.3
	C354.8,76.2,358,75.6,360.9,74.5L360.9,74.5z M227.9-183.7c-62.8,32-111,87.5-133.8,154.2c-3.7,10.9,2.1,22.8,13.1,26.5
	s22.8-2.1,26.5-13C153-72.5,193.8-119.4,247-146.6c10.3-5.2,14.4-17.8,9.1-28.1C250.8-184.9,238.2-188.9,227.9-183.7z M600.5-27.1
	c-20.7-67.3-67.2-124.2-129-158.1c-10.1-5.6-22.8-1.9-28.4,8.2c-5.6,10.1-1.9,22.8,8.2,28.3C503.7-120,543-71.8,560.5-14.9
	c3.4,11,15.1,17.2,26.1,13.8C597.7-4.5,603.9-16.1,600.5-27.1z"/>
<path d="M518.2,189.9h-5.8l-12.2-36.6c21.8-30.6,34.6-68,34.6-108.4c0-89.4-62.7-164.2-146.7-183.1c0.2-1.5,0.3-3,0.3-4.6
	c0-23-18.7-41.7-41.8-41.7s-41.8,18.7-41.8,41.7c0,1.6,0.1,3.1,0.3,4.6c-84,18.9-146.7,93.7-146.7,183.1
	c0,46.3,16.8,88.7,44.7,121.5l-7.9,23.6h-5.8c-14.4,0-26.2,11.7-26.2,26.1s11.7,26.1,26.2,26.1h24.6c11.3,0,21.3-7.2,24.8-17.8
	l6.9-20.8c29.1,18.5,63.7,29.2,100.8,29.2c42.2,0,81.2-13.9,112.6-37.3l9.6,28.9c3.6,10.7,13.6,17.8,24.8,17.8h24.6
	c14.4,0,26.2-11.7,26.2-26.1S532.7,189.9,518.2,189.9z M346.5,170C277.2,170,221,114,221,44.9S277.2-80.3,346.5-80.3
	S472-24.3,472,44.9S415.8,170,346.5,170z"/>
</svg>
