<?xml version="1.0" encoding="UTF-8" standalone="no"?>
<svg width="512px" height="512px" viewBox="0 0 512 512" version="1.1" xmlns="http://www.w3.org/2000/svg" xmlns:xlink="http://www.w3.org/1999/xlink" xmlns:sketch="http://www.bohemiancoding.com/sketch/ns">
    <!-- Generator: Sketch 3.3.2 (12043) - http://www.bohemiancoding.com/sketch -->
    <title>Roundtrip</title>
    <desc>Created with Sketch.</desc>
    <defs></defs>
    <g id="SVGs" stroke="none" stroke-width="1" fill="none" fill-rule="evenodd" sketch:type="MSPage">
        <g id="Roundtrip" sketch:type="MSArtboardGroup" fill="#000000">
            <g id="redo" sketch:type="MSLayerGroup" transform="translate(56.000000, 54.000000)">
                <path d="M384.828605,273.426275 C374.321884,266.726641 360.187919,259.447973 347.117087,253.861181 C334.046256,248.274389 330.077201,257.505804 326.134976,263.263016 C318.44793,277.127344 311.478124,287.448323 300.986061,297.83611 C248.125284,350.171529 162.426751,350.171529 109.646066,297.83611 C56.7852893,245.500692 56.7852893,160.653876 109.646066,108.318458 C155.218464,63.198983 225.058763,57.0931841 277.358895,89.7631728 L248.465114,118.369793 C239.828806,126.920268 242.454787,135.899944 254.353633,138.4314 L383.499744,165.906989 C395.388191,168.436234 402.93242,160.862871 400.347929,148.980728 L372.620798,21.5058634 C370.037346,9.62850301 360.946561,6.92694981 352.312662,15.4750399 L327.176173,40.3617093 C247.003995,-18.713877 133.19314,-12.449486 60.3093411,59.630659 C-19.7026533,138.847452 -19.7026533,267.307116 60.3093411,346.523909 C140.321335,425.740702 270.070516,425.740702 350.162602,346.523909 C365.286352,331.550466 379.750218,310.903348 387.601402,296.619314 C395.452587,282.33528 390.959952,277.335943 384.828605,273.426275 Z" id="Shape" sketch:type="MSShapeGroup"></path>
            </g>
        </g>
    </g>
</svg>