<?xml version="1.0" encoding="UTF-8" standalone="no"?>
<svg width="512px" height="512px" viewBox="0 0 512 512" version="1.1" xmlns="http://www.w3.org/2000/svg" xmlns:xlink="http://www.w3.org/1999/xlink" xmlns:sketch="http://www.bohemiancoding.com/sketch/ns">
    <!-- Generator: Sketch 3.3.2 (12043) - http://www.bohemiancoding.com/sketch -->
    <title>Morning</title>
    <desc>Created with Sketch.</desc>
    <defs></defs>
    <g id="SVGs" stroke="none" stroke-width="1" fill="none" fill-rule="evenodd" sketch:type="MSPage">
        <g id="Morning" sketch:type="MSArtboardGroup" fill="#000000">
            <g id="Rectangle-111-+-Shape" sketch:type="MSLayerGroup" transform="translate(1.000000, 28.000000)">
                <path d="M268.886667,262.494749 C278.814073,258.782615 285.88,249.208626 285.88,237.983247 L285.88,154.731039 C285.88,140.276922 274.172246,128.571429 259.73,128.571429 C245.284578,128.571429 233.58,140.283485 233.58,154.731039 L233.58,211.921429 L176.263896,211.921429 C161.809779,211.921429 150.104286,223.629182 150.104286,238.071429 C150.104286,252.51685 161.816342,264.221429 176.263896,264.221429 L259.516104,264.221429 C262.818742,264.221429 265.977879,263.610188 268.886667,262.494749 L268.886667,262.494749 Z M135.910152,4.30630994 C73.0700555,36.3435949 24.8758368,91.8245261 2.10850496,158.462459 C-1.61687605,169.366314 4.22906615,181.216579 15.1657823,184.930767 C26.1024985,188.644955 37.9884767,182.816577 41.7138577,171.912722 C60.9734738,115.541558 101.79071,68.5529704 154.959314,41.4464282 C165.246183,36.2019527 169.321038,23.6363666 164.060757,13.3804062 C158.800476,3.1244457 146.197021,-0.938165559 135.910152,4.30630994 Z M508.514371,160.855097 C487.780788,93.5924101 441.346913,36.6388137 379.47709,2.71318165 C369.353433,-2.83801365 356.632892,0.84404049 351.064967,10.9372798 C345.497042,21.030519 349.190193,33.7128391 359.31385,39.2640344 C411.651517,67.9628145 450.977862,116.198649 468.520413,173.109179 C471.914483,184.120022 483.618872,190.302904 494.662898,186.919033 C505.706924,183.535162 511.90844,171.86594 508.514371,160.855097 Z" id="Rectangle-111" sketch:type="MSShapeGroup"></path>
                <path d="M254.5,420.571429 C358.484173,420.571429 442.78,336.52888 442.78,232.857143 C442.78,129.185406 358.484173,45.1428571 254.5,45.1428571 C150.515827,45.1428571 66.22,129.185406 66.22,232.857143 C66.22,336.52888 150.515827,420.571429 254.5,420.571429 L254.5,420.571429 L254.5,420.571429 Z M254.5,358 C185.177218,358 128.98,301.971634 128.98,232.857143 C128.98,163.742651 185.177218,107.714286 254.5,107.714286 C323.822782,107.714286 380.02,163.742651 380.02,232.857143 C380.02,301.971634 323.822782,358 254.5,358 L254.5,358 Z M254.5,86.8571429 C277.607594,86.8571429 296.34,68.181021 296.34,45.1428571 C296.34,22.1046933 277.607594,3.42857143 254.5,3.42857143 C231.392406,3.42857143 212.66,22.1046933 212.66,45.1428571 C212.66,68.181021 231.392406,86.8571429 254.5,86.8571429 L254.5,86.8571429 Z M426.20897,377.915109 L401.570771,377.915109 L401.570771,403.986537 L426.383948,395.757324 L404.5395,330.285958 C399.980934,316.623194 385.176249,309.23168 371.472309,313.776549 C357.76837,318.321418 350.35458,333.081621 354.913146,346.744385 L376.757594,412.215751 C380.312252,422.869637 390.309064,430.057966 401.570771,430.057966 L426.20897,430.057966 C440.651216,430.057966 452.35897,418.38539 452.35897,403.986537 C452.35897,389.587685 440.651216,377.915109 426.20897,377.915109 L426.20897,377.915109 Z M97.3063232,430.057966 L121.944522,430.057966 C133.206229,430.057966 143.203041,422.869637 146.757699,412.215751 L168.602147,346.744385 C173.160713,333.081621 165.746923,318.321418 152.042983,313.776549 C138.339044,309.23168 123.534359,316.623194 118.975793,330.285958 L97.1313445,395.757324 L121.944522,403.986537 L121.944522,377.915109 L97.3063232,377.915109 C82.864077,377.915109 71.1563232,389.587685 71.1563232,403.986537 C71.1563232,418.38539 82.864077,430.057966 97.3063232,430.057966 L97.3063232,430.057966 Z" id="Shape" sketch:type="MSShapeGroup"></path>
            </g>
        </g>
    </g>
</svg>